<svg width="30" height="28" viewBox="0 0 30 28" fill="none" xmlns="http://www.w3.org/2000/svg">
<g filter="url(#filter0_d_18_583)">
<path d="M15 0.5C12.5756 0.504606 10.2049 1.21414 8.17654 2.54217C6.14822 3.87021 4.54987 5.75943 3.57618 7.97971C2.60248 10.2 2.29547 12.6555 2.69253 15.0472C3.0896 17.4389 4.1736 19.6635 5.8125 21.45C6.98303 22.7188 8.40368 23.7314 9.98492 24.424C11.5662 25.1166 13.2737 25.4742 15 25.4742C16.7263 25.4742 18.4338 25.1166 20.0151 24.424C21.5963 23.7314 23.017 22.7188 24.1875 21.45C25.8264 19.6635 26.9104 17.4389 27.3075 15.0472C27.7045 12.6555 27.3975 10.2 26.4238 7.97971C25.4501 5.75943 23.8518 3.87021 21.8235 2.54217C19.7951 1.21414 17.4244 0.504606 15 0.5ZM15 23C12.4106 22.9961 9.92364 21.9878 8.0625 20.1875C8.62755 18.8119 9.58879 17.6354 10.8241 16.8074C12.0593 15.9793 13.5129 15.5373 15 15.5373C16.4871 15.5373 17.9407 15.9793 19.1759 16.8074C20.4112 17.6354 21.3724 18.8119 21.9375 20.1875C20.0764 21.9878 17.5894 22.9961 15 23ZM12.5 10.5C12.5 10.0055 12.6466 9.5222 12.9213 9.11107C13.196 8.69995 13.5865 8.37952 14.0433 8.1903C14.5001 8.00108 15.0028 7.95157 15.4877 8.04804C15.9727 8.1445 16.4181 8.3826 16.7678 8.73223C17.1174 9.08186 17.3555 9.52732 17.452 10.0123C17.5484 10.4972 17.4989 10.9999 17.3097 11.4567C17.1205 11.9135 16.8 12.304 16.3889 12.5787C15.9778 12.8534 15.4945 13 15 13C14.337 13 13.7011 12.7366 13.2322 12.2678C12.7634 11.7989 12.5 11.163 12.5 10.5ZM23.6375 18C22.5207 16.0897 20.8018 14.6038 18.75 13.775C19.3865 13.0533 19.8012 12.1633 19.9443 11.2118C20.0875 10.2603 19.9531 9.28764 19.5572 8.41062C19.1613 7.5336 18.5207 6.78945 17.7124 6.26746C16.904 5.74547 15.9622 5.46781 15 5.46781C14.0378 5.46781 13.096 5.74547 12.2876 6.26746C11.4793 6.78945 10.8387 7.5336 10.4428 8.41062C10.0469 9.28764 9.91248 10.2603 10.0557 11.2118C10.1988 12.1633 10.6135 13.0533 11.25 13.775C9.19825 14.6038 7.47934 16.0897 6.3625 18C5.47243 16.4839 5.00215 14.7581 5 13C5 10.3478 6.05357 7.8043 7.92893 5.92893C9.8043 4.05357 12.3478 3 15 3C17.6522 3 20.1957 4.05357 22.0711 5.92893C23.9464 7.8043 25 10.3478 25 13C24.9979 14.7581 24.5276 16.4839 23.6375 18Z" fill="#E8BF96"/>
<path d="M7.6 19.9975L7.47117 20.3111L7.71487 20.5469C9.66907 22.4372 12.2804 23.4959 14.9992 23.5L15.0008 23.5C17.7196 23.4959 20.3309 22.4372 22.2851 20.5469L22.5288 20.3111L22.4 19.9975C21.7973 18.5302 20.772 17.2752 19.4543 16.392C18.1367 15.5088 16.5863 15.0373 15 15.0373C13.4137 15.0373 11.8633 15.5088 10.5457 16.392C9.22804 17.2752 8.20272 18.5302 7.6 19.9975ZM23.2059 18.2524L23.6366 18.9891L24.0687 18.2531C25.0037 16.6604 25.4977 14.8475 25.5 13.0006V13C25.5 10.2152 24.3938 7.54451 22.4246 5.57538C20.4555 3.60625 17.7848 2.5 15 2.5C12.2152 2.5 9.54451 3.60625 7.57538 5.57538C5.60625 7.54451 4.5 10.2152 4.5 13L4.5 13.0006C4.50226 14.8475 4.99629 16.6604 5.93131 18.2531L6.3634 18.9891L6.79414 18.2524C7.85514 16.4376 9.4881 15.026 11.4373 14.2386L12.0922 13.974L11.625 13.4443C11.0522 12.7948 10.679 11.9938 10.5501 11.1374C10.4212 10.281 10.5422 9.40566 10.8985 8.61634C11.2548 7.82702 11.8313 7.15728 12.5589 6.68749C13.2864 6.2177 14.134 5.96781 15 5.96781C15.866 5.96781 16.7136 6.2177 17.4411 6.68749C18.1687 7.15728 18.7452 7.82702 19.1015 8.61634C19.4578 9.40566 19.5788 10.281 19.4499 11.1374C19.321 11.9938 18.9478 12.7948 18.375 13.4443L17.9078 13.974L18.5627 14.2386C20.5119 15.026 22.1449 16.4376 23.2059 18.2524ZM8.45043 2.96049C10.3973 1.68575 12.6729 1.00461 15 1C17.3271 1.00461 19.6027 1.68575 21.5496 2.96049C23.4968 4.2354 25.0312 6.04905 25.9659 8.18052C26.9007 10.312 27.1954 12.6693 26.8142 14.9653C26.4331 17.2611 25.3926 19.3966 23.8194 21.1116C22.6958 22.3294 21.3322 23.3012 19.8145 23.966C18.2965 24.6309 16.6572 24.9742 15 24.9742C13.3428 24.9742 11.7035 24.6309 10.1855 23.966C8.66779 23.3012 7.30417 22.3294 6.18058 21.1116C4.60744 19.3966 3.56693 17.2611 3.18578 14.9653C2.8046 12.6693 3.09933 10.312 4.03408 8.18052C4.96883 6.04905 6.50324 4.2354 8.45043 2.96049ZM12.5056 8.83329C12.1759 9.32664 12 9.90666 12 10.5C12 11.2956 12.3161 12.0587 12.8787 12.6213C13.4413 13.1839 14.2044 13.5 15 13.5C15.5933 13.5 16.1734 13.3241 16.6667 12.9944C17.1601 12.6648 17.5446 12.1962 17.7716 11.6481C17.9987 11.0999 18.0581 10.4967 17.9424 9.91473C17.8266 9.33279 17.5409 8.79824 17.1213 8.37868C16.7018 7.95912 16.1672 7.6734 15.5853 7.55764C15.0033 7.44189 14.4001 7.5013 13.8519 7.72836C13.3038 7.95542 12.8352 8.33994 12.5056 8.83329Z" stroke="#E8BF96"/>
</g>
<defs>
<filter id="filter0_d_18_583" x="-1.47626" y="0.5" width="32.9525" height="32.9741" filterUnits="userSpaceOnUse" color-interpolation-filters="sRGB">
<feFlood flood-opacity="0" result="BackgroundImageFix"/>
<feColorMatrix in="SourceAlpha" type="matrix" values="0 0 0 0 0 0 0 0 0 0 0 0 0 0 0 0 0 0 127 0" result="hardAlpha"/>
<feOffset dy="4"/>
<feGaussianBlur stdDeviation="2"/>
<feComposite in2="hardAlpha" operator="out"/>
<feColorMatrix type="matrix" values="0 0 0 0 0 0 0 0 0 0 0 0 0 0 0 0 0 0 0.25 0"/>
<feBlend mode="normal" in2="BackgroundImageFix" result="effect1_dropShadow_18_583"/>
<feBlend mode="normal" in="SourceGraphic" in2="effect1_dropShadow_18_583" result="shape"/>
</filter>
</defs>
</svg>
