<svg width="72" height="72" viewBox="0 0 72 72" fill="none" xmlns="http://www.w3.org/2000/svg">
<rect width="72" height="72" rx="36" fill="#B08050"/>
<path d="M52.2362 37.8435C49.9952 37.0315 47.5093 37.212 45.4073 38.3374L41.9808 39.8788C41.704 38.3007 40.4919 37.1148 38.9959 37.0692C38.9871 37.069 33.8583 37.0111 33.8583 37.0111C29.7532 35.885 27.0858 37.332 25.5642 38.7579C25.253 39.0496 24.9793 39.3498 24.7385 39.646C24.3279 39.2038 23.6031 39.0856 23.0746 39.3762L18.4189 41.9354C17.8151 42.2674 17.5523 42.9956 17.8056 43.6358L22.3555 55.1377C22.6545 55.8934 23.5733 56.2274 24.2902 55.8333L28.9458 53.2742C29.3822 53.0343 29.6392 52.5873 29.6533 52.1162H36.6018C37.7352 52.1162 38.8542 51.8185 39.8378 51.2553C39.8378 51.2553 52.9062 43.7589 52.9799 43.6919C54.81 42.027 54.8664 38.7966 52.2362 37.8435C53.2854 38.2237 49.9952 37.0315 52.2362 37.8435ZM24.3318 52.688L20.7964 43.7508L23.0327 42.5216L26.5681 51.4588L24.3318 52.688ZM51.2312 41.5773L38.4744 48.8826C37.9051 49.2087 37.2575 49.381 36.6016 49.381H28.6916L26.0357 42.667C26.2632 42.2034 26.7113 41.4342 27.4391 40.7522C28.9296 39.3555 30.8942 38.998 33.2787 39.6898C33.398 39.7244 33.5214 39.7427 33.6455 39.7441L38.9176 39.8034C39.0522 39.815 39.3007 40.1143 39.3007 40.5679C39.3007 41.035 39.0441 41.3327 38.9099 41.3327H33.7299V44.0679H38.9099C39.5516 44.0679 40.1488 43.8509 40.6459 43.4791L46.5775 40.8109C46.609 40.7968 46.6398 40.7815 46.67 40.765C48.0929 39.9914 49.7811 39.8636 51.3015 40.4145C51.9031 40.6327 51.4685 41.3364 51.2312 41.5773ZM42.9996 35.7079C37.5665 35.7079 33.1463 31.2874 33.1463 25.8539C33.1463 20.4205 37.5664 16 42.9996 16C48.4328 16 52.8528 20.4205 52.8528 25.8539C52.8528 31.2874 48.4327 35.7079 42.9996 35.7079ZM42.9996 18.7352C39.0771 18.7352 35.886 21.9286 35.886 25.8539C35.886 29.7792 39.0772 32.9727 42.9996 32.9727C46.9222 32.9727 50.1133 29.7791 50.1133 25.8539C50.1133 21.9287 46.9221 18.7352 42.9996 18.7352Z" fill="white"/>
<path d="M43.6358 24.7392C42.5464 24.2919 42.4622 24.0997 42.4622 23.8768C42.4622 23.7345 42.5328 23.4037 43.1871 23.4037C43.7857 23.4037 44.5315 23.7397 45.0575 24.0859L45.7892 22.168C45.2668 21.8354 44.6319 21.5497 44.0383 21.4583V20.211H42.0874V21.5797C40.9284 21.945 40.2142 22.8715 40.2142 24.0248C40.2142 25.5523 41.4363 26.2343 42.6299 26.6991C43.5836 27.0828 43.6635 27.3765 43.6635 27.6217C43.6635 27.9989 43.3159 28.2426 42.778 28.2426C42.0765 28.2426 41.2609 27.838 40.6899 27.3952L39.9858 29.3439C40.5681 29.7954 41.2421 30.0933 42.0005 30.2045V31.4969H43.9635V30.0901C45.1587 29.7095 45.9237 28.7193 45.9237 27.5354C45.9237 25.8781 44.7011 25.1706 43.6358 24.7392Z" fill="white"/>
</svg>
